<?xml version="1.0" encoding="UTF-8"?>
<svg id="GRAFICO" xmlns="http://www.w3.org/2000/svg" xmlns:xlink="http://www.w3.org/1999/xlink" viewBox="0 0 1000 483.32">
  <defs>
    <style>
      .cls-1 {
        stroke: url(#Degradado_sin_nombre_44);
      }

      .cls-1, .cls-2, .cls-3, .cls-4, .cls-5, .cls-6, .cls-7 {
        fill: none;
        stroke-miterlimit: 10;
      }

      .cls-1, .cls-6 {
        stroke-width: 1.36px;
      }

      .cls-8 {
        fill: url(#Degradado_sin_nombre_44-2);
      }

      .cls-9 {
        fill: url(#Degradado_sin_nombre_44-4);
      }

      .cls-2 {
        stroke: url(#Degradado_sin_nombre_196);
      }

      .cls-3 {
        stroke: url(#Degradado_sin_nombre_196-3);
      }

      .cls-4 {
        stroke: url(#Degradado_sin_nombre_196-2);
      }

      .cls-5 {
        stroke: url(#Degradado_sin_nombre_196-5);
      }

      .cls-6 {
        stroke: url(#Degradado_sin_nombre_196-4);
      }

      .cls-7 {
        stroke: url(#Degradado_sin_nombre_44-3);
        stroke-width: 1.36px;
      }
    </style>
    <linearGradient id="Degradado_sin_nombre_196" data-name="Degradado sin nombre 196" x1="635.12" y1="164.61" x2="889.29" y2="164.61" gradientUnits="userSpaceOnUse">
      <stop offset="0" stop-color="#00efff"/>
      <stop offset="1" stop-color="#00a5e2"/>
    </linearGradient>
    <linearGradient id="Degradado_sin_nombre_196-2" data-name="Degradado sin nombre 196" x1="112.51" y1="164.61" x2="254.9" y2="164.61" xlink:href="#Degradado_sin_nombre_196"/>
    <linearGradient id="Degradado_sin_nombre_196-3" data-name="Degradado sin nombre 196" x1="283.9" y1="164.61" x2="426.28" y2="164.61" xlink:href="#Degradado_sin_nombre_196"/>
    <linearGradient id="Degradado_sin_nombre_196-4" data-name="Degradado sin nombre 196" x1="74.8" y1="305.35" x2="925.2" y2="305.35" xlink:href="#Degradado_sin_nombre_196"/>
    <linearGradient id="Degradado_sin_nombre_196-5" data-name="Degradado sin nombre 196" x1="455" y1="164.61" x2="606.51" y2="164.61" xlink:href="#Degradado_sin_nombre_196"/>
    <linearGradient id="Degradado_sin_nombre_44" data-name="Degradado sin nombre 44" x1="74.8" y1="389.41" x2="925.2" y2="389.41" gradientUnits="userSpaceOnUse">
      <stop offset="0" stop-color="#00efff"/>
      <stop offset="1" stop-color="#00a5e2"/>
    </linearGradient>
    <linearGradient id="Degradado_sin_nombre_44-2" data-name="Degradado sin nombre 44" x1="74.8" y1="389.41" x2="925.2" y2="389.41" xlink:href="#Degradado_sin_nombre_44"/>
    <linearGradient id="Degradado_sin_nombre_44-3" data-name="Degradado sin nombre 44" y1="347.38" x2="925.2" y2="347.38" xlink:href="#Degradado_sin_nombre_44"/>
    <linearGradient id="Degradado_sin_nombre_44-4" data-name="Degradado sin nombre 44" x1="74.8" y1="347.38" x2="925.2" y2="347.38" xlink:href="#Degradado_sin_nombre_44"/>
  </defs>
  <path class="cls-2" d="M883.16,156.36c-2.44-3.77-5.16-7.5-8.17-11.19-3.01-3.68-5.9-6.91-8.68-9.68-9.65-9.66-18.69-16.2-27.1-19.65-8.41-3.44-16.49-4.49-24.23-3.15-7.74,1.34-15.29,4.44-22.66,9.32-4.06,2.64-8.33,6.56-10.95,9.5l-35.51-37.6-63.7,39.35,25.94,28c5.54,5.54,9.12,8.75,8.93,12.09-.19,3.35-2.68,6.55-7.46,9.61-5.26,3.54-10.4,4.61-15.41,3.23-5.02-1.39-10.49-5.04-16.42-10.97-2.29-2.29-4.68-5.07-7.17-8.32-2.49-3.25-4.76-6.62-6.81-10.11-2.06-3.49-3.32-6.45-4.37-9.42l-23.67,14.8c1.24,3.35,3.08,6.91,5.52,10.68,2.44,3.77,5.16,7.5,8.17,11.19,3.01,3.68,5.9,6.91,8.68,9.68,9.65,9.66,18.69,16.2,27.1,19.65,8.41,3.44,16.49,4.49,24.23,3.15,7.74-1.34,15.29-4.44,22.66-9.32,4.06-2.64,7.7-6.67,10.32-9.61l36.14,37.71,63.56-39.4-25.98-27.58c-5.54-5.54-8.95-9.12-8.76-12.46.19-3.35,2.68-6.55,7.46-9.61,5.26-3.54,10.4-4.61,15.41-3.23,5.02,1.39,10.49,5.04,16.42,10.97,2.29,2.29,4.68,5.07,7.17,8.32,2.49,3.25,4.76,6.62,6.81,10.11,2.06,3.49,3.44,6.25,4.49,9.21l23.54-14.59c-1.24-3.35-3.08-6.91-5.52-10.68ZM780.27,201.46l-57.5-61.51,20.88-12.7,57.83,61.15-21.21,13.07Z"/>
  <rect class="cls-4" x="113.01" y="93.92" width="141.38" height="141.38"/>
  <circle class="cls-3" cx="355.09" cy="164.61" r="70.69"/>
  <line class="cls-6" x1="74.8" y1="305.35" x2="925.2" y2="305.35"/>
  <polygon class="cls-5" points="565.33 235.3 455.78 118.12 495.56 93.92 605.73 210.41 565.33 235.3"/>
  <g>
    <line class="cls-1" x1="74.8" y1="389.41" x2="921.5" y2="389.41"/>
    <polygon class="cls-8" points="910.21 403.34 907.89 400.84 920.19 389.41 907.89 377.97 910.21 375.47 925.2 389.41 910.21 403.34"/>
  </g>
  <g>
    <line class="cls-7" x1="74.8" y1="347.38" x2="917.89" y2="347.38"/>
    <path class="cls-9" d="M917.51,355.07c4.25,0,7.69-3.44,7.69-7.69s-3.44-7.69-7.69-7.69-7.69,3.44-7.69,7.69,3.44,7.69,7.69,7.69Z"/>
  </g>
</svg>